# xmcd
#
# Track frame offsets:
#	150
#	16720
#	33265
#
# Disc length: 662 seconds
# Revision: 1
# Processed by: cddbd v1.5.2PL0 Copyright (c) Steve Scherf et al.
# Submitted via: dBpowerAMP V12.0
#
DISCID=13029403
DTITLE=Darryl Worley - Have You Forgotten
DYEAR=2003
DGENRE=Country
TTITLE0=I Need a Breather
TTITLE1=Problem Wit Dat
TTITLE2=Problem Wit Dat
EXTD=
EXTT0=
EXTT1=
EXTT2=
PLAYORDER=
